<svg xmlns="http://www.w3.org/2000/svg" xmlns:xlink="http://www.w3.org/1999/xlink" width="20" height="20" viewBox="0 0 20 20">
    <defs>
        <path id="a" d="M0 0h20v20H0z"/>
    </defs>
    <g fill="none" fill-rule="evenodd">
        <mask id="b" fill="#fff">
            <use xlink:href="#a"/>
        </mask>
        <path fill="#2973A5" d="M16.387 20H2.613A2.615 2.615 0 0 1 0 17.388V3.612A2.615 2.615 0 0 1 2.613 1h9.024a.713.713 0 0 1 0 1.425H2.613a1.19 1.19 0 0 0-1.188 1.187v13.776a1.19 1.19 0 0 0 1.188 1.187h13.774a1.19 1.19 0 0 0 1.188-1.187V8.362a.713.713 0 0 1 1.425 0v9.026A2.615 2.615 0 0 1 16.387 20zM19.344 7a.656.656 0 0 1-.657-.656V1.312h-5.03a.656.656 0 0 1 0-1.312h5.687c.362 0 .656.294.656.656v5.688a.656.656 0 0 1-.656.656z" mask="url(#b)"/>
        <path fill="#2973A5" d="M8.692 12a.693.693 0 0 1-.49-1.182L18.819.203a.692.692 0 1 1 .98.98L9.181 11.796a.69.69 0 0 1-.49.203z" mask="url(#b)"/>
    </g>
</svg>
