<svg xmlns="http://www.w3.org/2000/svg" xmlns:xlink="http://www.w3.org/1999/xlink" width="22" height="22" viewBox="0 0 22 22">
    <defs>
        <path id="a" d="M0 0h22v22H0z"/>
    </defs>
    <g fill="none" fill-rule="evenodd">
        <mask id="b" fill="#fff">
            <use xlink:href="#a"/>
        </mask>
        <path fill="#000" d="M17.25 22H2.75A2.752 2.752 0 0 1 0 19.25V4.75A2.752 2.752 0 0 1 2.75 2h9.5a.75.75 0 0 1 0 1.5h-9.5c-.689 0-1.25.561-1.25 1.25v14.5c0 .69.561 1.25 1.25 1.25h14.5c.689 0 1.25-.56 1.25-1.25v-9.5a.75.75 0 0 1 1.5 0v9.5A2.752 2.752 0 0 1 17.25 22zM21.25 8a.75.75 0 0 1-.75-.75V1.5h-5.75a.75.75 0 0 1 0-1.5h6.5a.75.75 0 0 1 .75.75v6.5a.75.75 0 0 1-.75.75z" mask="url(#b)"/>
        <path fill="#000" d="M9.75 13a.75.75 0 0 1-.53-1.28L20.72.22a.75.75 0 1 1 1.06 1.06l-11.5 11.5a.748.748 0 0 1-.53.22z" mask="url(#b)"/>
    </g>
</svg>
