<?xml version="1.0" encoding="utf-8"?>
<!-- Generator: Adobe Illustrator 16.0.0, SVG Export Plug-In . SVG Version: 6.00 Build 0)  -->
<!DOCTYPE svg PUBLIC "-//W3C//DTD SVG 1.1//EN" "http://www.w3.org/Graphics/SVG/1.1/DTD/svg11.dtd">
<svg version="1.1" id="Capa_1" xmlns="http://www.w3.org/2000/svg" xmlns:xlink="http://www.w3.org/1999/xlink" x="0px" y="0px"
	 width="800px" height="400px" viewBox="0 0 800 400" enable-background="new 0 0 800 400" xml:space="preserve">
<g>
	<g>
		<g>
			<path fill="#3287B4" d="M44.668,269.051v28.541h33.987v7.406H44.668v34.205H36.39v-77.561h48.147v7.408H44.668z"/>
			<path fill="#3287B4" d="M99.566,339.203v-77.561h8.278v77.561H99.566z"/>
			<path fill="#3287B4" d="M175.164,330.924c-5.446,5.883-12.745,8.934-20.697,8.934c-7.625,0-14.597-2.832-19.826-8.061
				c-7.298-7.299-7.298-14.924-7.298-31.373s0-24.074,7.298-31.373c5.229-5.229,12.092-8.061,19.826-8.061
				c14.814,0,24.837,9.586,27.124,23.203h-8.278c-2.179-9.805-9.15-15.797-18.846-15.797c-5.12,0-10.021,2.07-13.398,5.557
				c-4.902,5.01-5.447,10.24-5.447,26.471s0.545,21.568,5.447,26.58c3.377,3.484,8.278,5.445,13.398,5.445
				c5.664,0,11.111-2.287,14.706-6.645c3.159-3.813,4.357-8.061,4.357-14.053v-5.883h-19.063v-7.297h27.342v12.309
				C181.809,319.813,179.957,325.805,175.164,330.924z"/>
			<path fill="#3287B4" d="M227.013,339.857c-15.687,0-27.016-10.785-27.016-26.254v-51.961h8.279v51.309
				c0,11.764,7.407,19.498,18.736,19.498s18.845-7.734,18.845-19.498v-51.309h8.279v51.961
				C254.137,329.072,242.698,339.857,227.013,339.857z"/>
			<path fill="#3287B4" d="M275.484,339.203v-77.561h48.147v7.408h-39.869v27.342h33.987v7.408h-33.987v27.996h39.869v7.406H275.484
				z"/>
			<path fill="#3287B4" d="M340.841,339.203v-77.561h8.278v77.561H340.841z"/>
			<path fill="#3287B4" d="M416.11,339.203l-17.646-34.422h-18.627v34.422h-8.279v-77.561h29.738c13.508,0,22.985,8.17,22.985,21.57
				c0,11.328-6.863,18.736-16.885,20.805l18.409,35.186H416.11z M400.533,269.051h-20.696v28.432h20.696
				c9.042,0,15.469-4.684,15.469-14.162C416.002,273.844,409.575,269.051,400.533,269.051z"/>
			<path fill="#3287B4" d="M488.22,339.203l-6.209-17.537h-33.878l-6.209,17.537h-8.823l28.54-77.561h6.972l28.432,77.561H488.22z
				 M465.235,273.518l-14.597,40.959h28.976L465.235,273.518z"/>
			<path fill="#3287B4" d="M529.502,339.857c-11.655,0-19.28-2.941-26.579-10.24l5.664-5.664c6.428,6.426,12.419,8.496,21.133,8.496
				c11.329,0,18.301-5.338,18.301-14.379c0-4.031-1.198-7.516-3.703-9.695c-2.506-2.178-4.467-2.832-10.131-3.703l-9.041-1.416
				c-6.101-0.98-10.894-2.941-14.271-5.883c-3.922-3.486-5.883-8.279-5.883-14.488c0-13.18,9.478-21.895,24.837-21.895
				c9.913,0,16.449,2.506,23.094,8.496l-5.338,5.338c-4.793-4.357-9.913-6.645-18.083-6.645c-10.349,0-16.34,5.773-16.34,14.379
				c0,3.813,1.09,6.863,3.486,8.932c2.396,2.07,6.427,3.596,10.457,4.25l8.497,1.307c7.299,1.09,10.894,2.613,14.161,5.445
				c4.248,3.596,6.536,8.934,6.536,15.361C556.3,331.469,545.624,339.857,529.502,339.857z"/>
		</g>
	</g>
	<g>
		<g>
			<path fill="#3287B4" d="M219.154,240.939c-3.887,0-7.44-1.443-10.105-4.109c-3.721-3.721-3.721-7.607-3.721-15.992
				s0-12.271,3.721-15.991c2.665-2.665,6.219-4.108,10.105-4.108c7.107,0,12.383,4.33,13.715,11.771h-4.331
				c-1.055-4.831-4.441-7.996-9.384-7.996c-2.609,0-5.108,1-6.83,2.776c-2.498,2.554-2.776,5.274-2.776,13.548
				s0.278,10.994,2.776,13.549c1.722,1.777,4.221,2.775,6.83,2.775c4.942,0,8.44-3.164,9.495-7.994h4.22
				C231.593,236.607,226.206,240.939,219.154,240.939z"/>
			<path fill="#3287B4" d="M272.464,240.605l-3.165-8.939H252.03l-3.165,8.939h-4.498l14.548-39.535h3.554l14.493,39.535H272.464z
				 M260.748,207.123l-7.441,20.879h14.771L260.748,207.123z"/>
			<path fill="#3287B4" d="M301.285,240.939c-5.941,0-9.828-1.5-13.549-5.221l2.888-2.887c3.276,3.275,6.33,4.33,10.772,4.33
				c5.774,0,9.328-2.721,9.328-7.328c0-2.055-0.61-3.832-1.888-4.941c-1.277-1.111-2.276-1.445-5.164-1.889l-4.608-0.723
				c-3.109-0.5-5.553-1.498-7.274-2.998c-1.999-1.777-2.998-4.221-2.998-7.385c0-6.719,4.83-11.16,12.66-11.16
				c5.053,0,8.384,1.276,11.771,4.33l-2.721,2.721c-2.443-2.221-5.054-3.387-9.218-3.387c-5.275,0-8.329,2.943-8.329,7.33
				c0,1.943,0.556,3.498,1.777,4.553s3.275,1.832,5.33,2.166l4.331,0.666c3.721,0.555,5.553,1.332,7.219,2.775
				c2.165,1.834,3.331,4.555,3.331,7.83C314.944,236.664,309.503,240.939,301.285,240.939z"/>
			<path fill="#3287B4" d="M354.594,240.605l-3.165-8.939H334.16l-3.165,8.939h-4.497l14.548-39.535h3.554l14.492,39.535H354.594z
				 M342.878,207.123l-7.44,20.879h14.771L342.878,207.123z"/>
			<path fill="#3287B4" d="M383.416,240.939c-5.941,0-9.829-1.5-13.549-5.221l2.888-2.887c3.275,3.275,6.329,4.33,10.771,4.33
				c5.775,0,9.329-2.721,9.329-7.328c0-2.055-0.611-3.832-1.889-4.941c-1.276-1.111-2.276-1.445-5.164-1.889l-4.608-0.723
				c-3.109-0.5-5.553-1.498-7.273-2.998c-1.999-1.777-2.999-4.221-2.999-7.385c0-6.719,4.831-11.16,12.66-11.16
				c5.053,0,8.385,1.276,11.771,4.33l-2.721,2.721c-2.443-2.221-5.053-3.387-9.217-3.387c-5.275,0-8.329,2.943-8.329,7.33
				c0,1.943,0.555,3.498,1.776,4.553s3.276,1.832,5.331,2.166l4.331,0.666c3.72,0.555,5.553,1.332,7.218,2.775
				c2.166,1.834,3.332,4.555,3.332,7.83C397.075,236.664,391.634,240.939,383.416,240.939z"/>
			<path fill="#3287B4" d="M458.825,236.941c-2.388,2.387-5.886,3.664-9.995,3.664h-13.548V201.07h13.548
				c4.109,0,7.607,1.277,9.995,3.666c4.108,4.108,3.887,10.16,3.887,15.658C462.712,225.891,462.934,232.832,458.825,236.941z
				 M455.882,207.734c-2.054-2.11-4.72-2.888-7.773-2.888h-8.606v31.983h8.606c3.054,0,5.72-0.777,7.773-2.887
				c2.721-2.832,2.61-8.719,2.61-13.549C458.492,215.563,458.603,210.566,455.882,207.734z"/>
			<path fill="#3287B4" d="M502.917,240.605l-3.165-8.939h-17.269l-3.165,8.939h-4.498l14.548-39.535h3.554l14.493,39.535H502.917z
				 M491.201,207.123l-7.44,20.879h14.77L491.201,207.123z"/>
			<path fill="#3287B4" d="M531.739,240.939c-5.941,0-9.828-1.5-13.549-5.221l2.888-2.887c3.275,3.275,6.33,4.33,10.772,4.33
				c5.774,0,9.328-2.721,9.328-7.328c0-2.055-0.611-3.832-1.888-4.941c-1.277-1.111-2.277-1.445-5.164-1.889l-4.609-0.723
				c-3.109-0.5-5.553-1.498-7.273-2.998c-1.999-1.777-2.999-4.221-2.999-7.385c0-6.719,4.831-11.16,12.66-11.16
				c5.054,0,8.385,1.276,11.772,4.33l-2.722,2.721c-2.442-2.221-5.053-3.387-9.217-3.387c-5.275,0-8.329,2.943-8.329,7.33
				c0,1.943,0.555,3.498,1.776,4.553s3.276,1.832,5.331,2.166l4.331,0.666c3.72,0.555,5.553,1.332,7.219,2.775
				c2.165,1.834,3.331,4.555,3.331,7.83C545.398,236.664,539.957,240.939,531.739,240.939z"/>
		</g>
	</g>
	<path fill="#16B3E0" d="M629.447,154.047l21.938-21.891c15.582-15.547,40.935-15.545,56.516,0l21.938,21.891
		c8.836,8.814,22.366,11.28,33.771,7.174V58.223H594.6v102.591C606.219,165.482,620.333,163.14,629.447,154.047z"/>
	<path fill="#3287B4" d="M722.061,252.65l-21.939-21.889c-11.292-11.268-29.662-11.268-40.956,0l-21.937,21.889
		c-11.167,11.141-27.921,14.768-42.629,10.58v78.547H763.61v-78.25c-3.623,0.932-7.359,1.396-11.096,1.396
		C741.364,264.924,730.221,260.791,722.061,252.65z"/>
	<path fill="#71832E" d="M629.448,248.348l21.938-21.889c15.582-15.547,40.936-15.545,56.517,0l21.938,21.889
		c8.835,8.814,22.365,11.283,33.771,7.176v-86.299c-3.623,0.932-7.359,1.398-11.096,1.398c-11.15,0-22.294-4.133-30.454-12.275
		l-21.939-21.889c-11.29-11.266-29.662-11.268-40.955,0l-21.938,21.89c-11.166,11.14-27.92,14.767-42.628,10.578v86.19
		C606.219,259.785,620.333,257.443,629.448,248.348z"/>
</g>
</svg>
